<?xml version="1.0" encoding="UTF-8" standalone="no"?>
<!-- Created with Inkscape (http://www.inkscape.org/) -->

<svg
   xmlns:dc="http://purl.org/dc/elements/1.1/"
   xmlns:cc="http://creativecommons.org/ns#"
   xmlns:rdf="http://www.w3.org/1999/02/22-rdf-syntax-ns#"
   xmlns:svg="http://www.w3.org/2000/svg"
   xmlns="http://www.w3.org/2000/svg"
   xmlns:sodipodi="http://sodipodi.sourceforge.net/DTD/sodipodi-0.dtd"
   xmlns:inkscape="http://www.inkscape.org/namespaces/inkscape"
   width="210mm"
   height="297mm"
   viewBox="0 0 744.09448819 1052.3622047"
   id="svg2"
   version="1.1"
   inkscape:version="0.91 r13725"
   sodipodi:docname="app_drawer_icon.svg">
  <defs
     id="defs4" />
  <sodipodi:namedview
     id="base"
     pagecolor="#ffffff"
     bordercolor="#666666"
     borderopacity="1.0"
     inkscape:pageopacity="0.0"
     inkscape:pageshadow="2"
     inkscape:zoom="0.7"
     inkscape:cx="100.03092"
     inkscape:cy="502.6108"
     inkscape:document-units="px"
     inkscape:current-layer="layer1"
     showgrid="false"
     inkscape:window-width="1600"
     inkscape:window-height="840"
     inkscape:window-x="0"
     inkscape:window-y="0"
     inkscape:window-maximized="1" />
  <metadata
     id="metadata7">
    <rdf:RDF>
      <cc:Work
         rdf:about="">
        <dc:format>image/svg+xml</dc:format>
        <dc:type
           rdf:resource="http://purl.org/dc/dcmitype/StillImage" />
        <dc:title></dc:title>
      </cc:Work>
    </rdf:RDF>
  </metadata>
  <g
     inkscape:label="Layer 1"
     inkscape:groupmode="layer"
     id="layer1">
    <rect
       style="fill:#000000;fill-rule:evenodd;stroke:#000000;stroke-width:1px;stroke-linecap:butt;stroke-linejoin:miter;stroke-opacity:1"
       id="rect3336"
       width="548.57141"
       height="605.71429"
       x="105.71429"
       y="209.50507" />
    <path
       style="fill:#ffffff;fill-opacity:1"
       d="M 391.42773 375.21875 A 134.28572 130 0 0 0 257.14258 505.21875 A 134.28572 130 0 0 0 391.42773 635.21875 A 134.28572 130 0 0 0 525.71484 505.21875 A 134.28572 130 0 0 0 391.42773 375.21875 z M 310.85742 455.79102 L 355.14258 455.79102 L 355.14258 498.64844 L 310.85742 498.64844 L 310.85742 455.79102 z M 370.85742 455.79102 L 415.14258 455.79102 L 415.14258 498.64844 L 370.85742 498.64844 L 370.85742 455.79102 z M 430.85742 455.79102 L 475.14258 455.79102 L 475.14258 498.64844 L 430.85742 498.64844 L 430.85742 455.79102 z M 310.85742 515.79102 L 355.14258 515.79102 L 355.14258 558.64844 L 310.85742 558.64844 L 310.85742 515.79102 z M 370.85742 515.79102 L 415.14258 515.79102 L 415.14258 558.64844 L 370.85742 558.64844 L 370.85742 515.79102 z M 430.85742 515.79102 L 475.14258 515.79102 L 475.14258 558.64844 L 430.85742 558.64844 L 430.85742 515.79102 z "
       id="path3338" />
  </g>
</svg>
